<mxfile host="app.diagrams.net" modified="2022-10-29T05:28:33.296Z" agent="5.0 (Macintosh)" etag="T0YGLy-VlrCalAZADdyD" version="20.2.7" type="github">
  <diagram id="E23BzTuwbjabltv9Nx4B" name="第 1 页">
    <mxGraphModel dx="1592" dy="554" grid="1" gridSize="10" guides="1" tooltips="1" connect="1" arrows="1" fold="1" page="1" pageScale="1" pageWidth="827" pageHeight="1169" math="1" shadow="0">
      <root>
        <mxCell id="0" />
        <mxCell id="1" parent="0" />
        <mxCell id="yrA-a9Iw9x8YZGmcqF-S-51" value="" style="rounded=0;whiteSpace=wrap;html=1;" vertex="1" parent="1">
          <mxGeometry x="-140.75" y="310" width="290" height="160" as="geometry" />
        </mxCell>
        <mxCell id="yrA-a9Iw9x8YZGmcqF-S-86" value="" style="rounded=0;whiteSpace=wrap;html=1;dashed=1;fillColor=#f8cecc;strokeColor=#b85450;sketch=1;" vertex="1" parent="1">
          <mxGeometry x="-20" y="300" width="60" height="180" as="geometry" />
        </mxCell>
        <mxCell id="yrA-a9Iw9x8YZGmcqF-S-52" value="&lt;div&gt;道&lt;/div&gt;&lt;div&gt;路&lt;/div&gt;&lt;div&gt;池&lt;/div&gt;&lt;div&gt;\(R^{(n)}\)&lt;br&gt;&lt;/div&gt;&lt;div&gt;&lt;br&gt;&lt;/div&gt;" style="rounded=0;whiteSpace=wrap;html=1;" vertex="1" parent="1">
          <mxGeometry x="-180" y="310" width="39.25" height="160" as="geometry" />
        </mxCell>
        <mxCell id="yrA-a9Iw9x8YZGmcqF-S-84" style="edgeStyle=orthogonalEdgeStyle;rounded=0;orthogonalLoop=1;jettySize=auto;html=1;exitX=0.5;exitY=1;exitDx=0;exitDy=0;entryX=0.5;entryY=0;entryDx=0;entryDy=0;" edge="1" parent="1" source="yrA-a9Iw9x8YZGmcqF-S-2" target="yrA-a9Iw9x8YZGmcqF-S-83">
          <mxGeometry relative="1" as="geometry" />
        </mxCell>
        <mxCell id="yrA-a9Iw9x8YZGmcqF-S-2" value="站点划分" style="rounded=0;whiteSpace=wrap;html=1;" vertex="1" parent="1">
          <mxGeometry x="225" y="40" width="120" height="60" as="geometry" />
        </mxCell>
        <mxCell id="yrA-a9Iw9x8YZGmcqF-S-3" value="\(road\_id^{(n)}_1\)" style="rounded=0;whiteSpace=wrap;html=1;" vertex="1" parent="1">
          <mxGeometry x="-132.75" y="330" width="108" height="27.5" as="geometry" />
        </mxCell>
        <mxCell id="yrA-a9Iw9x8YZGmcqF-S-50" value="..." style="text;html=1;align=center;verticalAlign=middle;resizable=0;points=[];autosize=1;strokeColor=none;fillColor=none;" vertex="1" parent="1">
          <mxGeometry x="-93.75" y="400" width="30" height="30" as="geometry" />
        </mxCell>
        <mxCell id="yrA-a9Iw9x8YZGmcqF-S-54" value="" style="ellipse;whiteSpace=wrap;html=1;aspect=fixed;" vertex="1" parent="1">
          <mxGeometry x="3.25" y="327.5" width="10" height="10" as="geometry" />
        </mxCell>
        <mxCell id="yrA-a9Iw9x8YZGmcqF-S-55" value="" style="ellipse;whiteSpace=wrap;html=1;aspect=fixed;" vertex="1" parent="1">
          <mxGeometry x="-3.75" y="341.5" width="10" height="10" as="geometry" />
        </mxCell>
        <mxCell id="yrA-a9Iw9x8YZGmcqF-S-56" value="" style="ellipse;whiteSpace=wrap;html=1;aspect=fixed;" vertex="1" parent="1">
          <mxGeometry x="-11.75" y="327.5" width="10" height="10" as="geometry" />
        </mxCell>
        <mxCell id="yrA-a9Iw9x8YZGmcqF-S-57" value="" style="ellipse;whiteSpace=wrap;html=1;aspect=fixed;" vertex="1" parent="1">
          <mxGeometry x="26.25" y="341.5" width="10" height="10" as="geometry" />
        </mxCell>
        <mxCell id="yrA-a9Iw9x8YZGmcqF-S-58" value="" style="ellipse;whiteSpace=wrap;html=1;aspect=fixed;" vertex="1" parent="1">
          <mxGeometry x="11.25" y="341.5" width="10" height="10" as="geometry" />
        </mxCell>
        <mxCell id="yrA-a9Iw9x8YZGmcqF-S-59" value="" style="ellipse;whiteSpace=wrap;html=1;aspect=fixed;" vertex="1" parent="1">
          <mxGeometry x="-13.75" y="351.5" width="10" height="10" as="geometry" />
        </mxCell>
        <mxCell id="yrA-a9Iw9x8YZGmcqF-S-61" value="" style="ellipse;whiteSpace=wrap;html=1;aspect=fixed;" vertex="1" parent="1">
          <mxGeometry x="3.25" y="373" width="10" height="10" as="geometry" />
        </mxCell>
        <mxCell id="yrA-a9Iw9x8YZGmcqF-S-62" value="" style="ellipse;whiteSpace=wrap;html=1;aspect=fixed;" vertex="1" parent="1">
          <mxGeometry x="-3.75" y="387" width="10" height="10" as="geometry" />
        </mxCell>
        <mxCell id="yrA-a9Iw9x8YZGmcqF-S-63" value="" style="ellipse;whiteSpace=wrap;html=1;aspect=fixed;" vertex="1" parent="1">
          <mxGeometry x="-11.75" y="373" width="10" height="10" as="geometry" />
        </mxCell>
        <mxCell id="yrA-a9Iw9x8YZGmcqF-S-64" value="" style="ellipse;whiteSpace=wrap;html=1;aspect=fixed;" vertex="1" parent="1">
          <mxGeometry x="26.25" y="387" width="10" height="10" as="geometry" />
        </mxCell>
        <mxCell id="yrA-a9Iw9x8YZGmcqF-S-65" value="" style="ellipse;whiteSpace=wrap;html=1;aspect=fixed;" vertex="1" parent="1">
          <mxGeometry x="11.25" y="387" width="10" height="10" as="geometry" />
        </mxCell>
        <mxCell id="yrA-a9Iw9x8YZGmcqF-S-66" value="" style="ellipse;whiteSpace=wrap;html=1;aspect=fixed;" vertex="1" parent="1">
          <mxGeometry x="-13.75" y="397" width="10" height="10" as="geometry" />
        </mxCell>
        <mxCell id="yrA-a9Iw9x8YZGmcqF-S-67" value="" style="ellipse;whiteSpace=wrap;html=1;aspect=fixed;" vertex="1" parent="1">
          <mxGeometry x="3.25" y="423" width="10" height="10" as="geometry" />
        </mxCell>
        <mxCell id="yrA-a9Iw9x8YZGmcqF-S-68" value="" style="ellipse;whiteSpace=wrap;html=1;aspect=fixed;" vertex="1" parent="1">
          <mxGeometry x="-3.75" y="437" width="10" height="10" as="geometry" />
        </mxCell>
        <mxCell id="yrA-a9Iw9x8YZGmcqF-S-69" value="" style="ellipse;whiteSpace=wrap;html=1;aspect=fixed;" vertex="1" parent="1">
          <mxGeometry x="-11.75" y="423" width="10" height="10" as="geometry" />
        </mxCell>
        <mxCell id="yrA-a9Iw9x8YZGmcqF-S-70" value="" style="ellipse;whiteSpace=wrap;html=1;aspect=fixed;" vertex="1" parent="1">
          <mxGeometry x="26.25" y="437" width="10" height="10" as="geometry" />
        </mxCell>
        <mxCell id="yrA-a9Iw9x8YZGmcqF-S-71" value="" style="ellipse;whiteSpace=wrap;html=1;aspect=fixed;" vertex="1" parent="1">
          <mxGeometry x="11.25" y="437" width="10" height="10" as="geometry" />
        </mxCell>
        <mxCell id="yrA-a9Iw9x8YZGmcqF-S-72" value="" style="ellipse;whiteSpace=wrap;html=1;aspect=fixed;" vertex="1" parent="1">
          <mxGeometry x="-13.75" y="447" width="10" height="10" as="geometry" />
        </mxCell>
        <mxCell id="yrA-a9Iw9x8YZGmcqF-S-75" value="包含站点数：\(p^{(n)}_1\)" style="text;html=1;align=center;verticalAlign=middle;resizable=0;points=[];autosize=1;strokeColor=none;fillColor=none;" vertex="1" parent="1">
          <mxGeometry x="11.25" y="332.5" width="160" height="30" as="geometry" />
        </mxCell>
        <mxCell id="yrA-a9Iw9x8YZGmcqF-S-76" value="包含站点数：\(p^{(n)}_2\)" style="text;html=1;align=center;verticalAlign=middle;resizable=0;points=[];autosize=1;strokeColor=none;fillColor=none;" vertex="1" parent="1">
          <mxGeometry x="11.25" y="375" width="160" height="30" as="geometry" />
        </mxCell>
        <mxCell id="yrA-a9Iw9x8YZGmcqF-S-77" value="包含站点数：\(p^{(n)}_m\)" style="text;html=1;align=center;verticalAlign=middle;resizable=0;points=[];autosize=1;strokeColor=none;fillColor=none;" vertex="1" parent="1">
          <mxGeometry x="11.25" y="425" width="160" height="30" as="geometry" />
        </mxCell>
        <mxCell id="yrA-a9Iw9x8YZGmcqF-S-80" value="\(road\_id^{(n)}_2\)" style="rounded=0;whiteSpace=wrap;html=1;" vertex="1" parent="1">
          <mxGeometry x="-131.75" y="376.25" width="108" height="27.5" as="geometry" />
        </mxCell>
        <mxCell id="yrA-a9Iw9x8YZGmcqF-S-81" value="\(road\_id^{(n)}_m\)" style="rounded=0;whiteSpace=wrap;html=1;" vertex="1" parent="1">
          <mxGeometry x="-131.75" y="426.25" width="108" height="27.5" as="geometry" />
        </mxCell>
        <mxCell id="yrA-a9Iw9x8YZGmcqF-S-83" value="&lt;div&gt;站点池为\(\emptyset\)&lt;/div&gt;&lt;div&gt;or&lt;/div&gt;&lt;div&gt;满足其他终止条件&lt;br&gt;&lt;/div&gt;" style="rhombus;whiteSpace=wrap;html=1;" vertex="1" parent="1">
          <mxGeometry x="201.25" y="147.5" width="167.5" height="120" as="geometry" />
        </mxCell>
        <mxCell id="yrA-a9Iw9x8YZGmcqF-S-85" value="\(n=1\)" style="text;html=1;align=center;verticalAlign=middle;resizable=0;points=[];autosize=1;strokeColor=none;fillColor=none;" vertex="1" parent="1">
          <mxGeometry x="230" y="110" width="60" height="30" as="geometry" />
        </mxCell>
        <mxCell id="yrA-a9Iw9x8YZGmcqF-S-96" value="" style="shape=flexArrow;endArrow=classic;html=1;rounded=0;width=16.910569105691057;endSize=2.9138211382113823;" edge="1" parent="1">
          <mxGeometry width="50" height="50" relative="1" as="geometry">
            <mxPoint x="9.869999999999997" y="490" as="sourcePoint" />
            <mxPoint x="9.869999999999997" y="510" as="targetPoint" />
          </mxGeometry>
        </mxCell>
        <mxCell id="yrA-a9Iw9x8YZGmcqF-S-97" value="" style="shape=flexArrow;endArrow=classic;html=1;rounded=0;width=16.910569105691057;endSize=2.9138211382113823;" edge="1" parent="1">
          <mxGeometry width="50" height="50" relative="1" as="geometry">
            <mxPoint x="166" y="400" as="sourcePoint" />
            <mxPoint x="186" y="400" as="targetPoint" />
          </mxGeometry>
        </mxCell>
        <mxCell id="yrA-a9Iw9x8YZGmcqF-S-124" value="&lt;div&gt;道路池\(R^{(n+1)}\)&lt;br&gt;&lt;/div&gt;" style="rounded=0;whiteSpace=wrap;html=1;" vertex="1" parent="1">
          <mxGeometry x="231" y="387" width="110" height="70" as="geometry" />
        </mxCell>
        <mxCell id="yrA-a9Iw9x8YZGmcqF-S-151" value="\(road\_id^{(n)}_x\)" style="rounded=0;whiteSpace=wrap;html=1;" vertex="1" parent="1">
          <mxGeometry x="231" y="330" width="108" height="27.5" as="geometry" />
        </mxCell>
        <mxCell id="yrA-a9Iw9x8YZGmcqF-S-152" value="\(\max\frac{p^{n}_x}{\sum_{i=1}^{m}p_i}\)" style="text;html=1;align=center;verticalAlign=middle;resizable=0;points=[];autosize=1;strokeColor=none;fillColor=none;" vertex="1" parent="1">
          <mxGeometry x="330" y="328.75" width="240" height="30" as="geometry" />
        </mxCell>
        <mxCell id="yrA-a9Iw9x8YZGmcqF-S-46" value="" style="rounded=0;whiteSpace=wrap;html=1;" vertex="1" parent="1">
          <mxGeometry x="-110" y="520" width="204.62" height="120" as="geometry" />
        </mxCell>
        <mxCell id="yrA-a9Iw9x8YZGmcqF-S-47" value="&lt;div&gt;站&lt;/div&gt;&lt;div&gt;点&lt;/div&gt;&lt;div&gt;池&lt;/div&gt;&lt;div&gt;\(S^{(n)}\)&lt;br&gt;&lt;/div&gt;" style="rounded=0;whiteSpace=wrap;html=1;" vertex="1" parent="1">
          <mxGeometry x="-140.75" y="520" width="38.37" height="120" as="geometry" />
        </mxCell>
        <mxCell id="yrA-a9Iw9x8YZGmcqF-S-153" value="" style="group" vertex="1" connectable="0" parent="1">
          <mxGeometry x="-32.76" y="540" width="95" height="80" as="geometry" />
        </mxCell>
        <mxCell id="yrA-a9Iw9x8YZGmcqF-S-4" value="" style="ellipse;whiteSpace=wrap;html=1;aspect=fixed;" vertex="1" parent="yrA-a9Iw9x8YZGmcqF-S-153">
          <mxGeometry x="65" y="40" width="10" height="10" as="geometry" />
        </mxCell>
        <mxCell id="yrA-a9Iw9x8YZGmcqF-S-5" value="" style="ellipse;whiteSpace=wrap;html=1;aspect=fixed;" vertex="1" parent="yrA-a9Iw9x8YZGmcqF-S-153">
          <mxGeometry x="55" width="10" height="10" as="geometry" />
        </mxCell>
        <mxCell id="yrA-a9Iw9x8YZGmcqF-S-6" value="" style="ellipse;whiteSpace=wrap;html=1;aspect=fixed;" vertex="1" parent="yrA-a9Iw9x8YZGmcqF-S-153">
          <mxGeometry x="55" y="20" width="10" height="10" as="geometry" />
        </mxCell>
        <mxCell id="yrA-a9Iw9x8YZGmcqF-S-8" value="" style="ellipse;whiteSpace=wrap;html=1;aspect=fixed;" vertex="1" parent="yrA-a9Iw9x8YZGmcqF-S-153">
          <mxGeometry x="40" width="10" height="10" as="geometry" />
        </mxCell>
        <mxCell id="yrA-a9Iw9x8YZGmcqF-S-19" value="" style="ellipse;whiteSpace=wrap;html=1;aspect=fixed;" vertex="1" parent="yrA-a9Iw9x8YZGmcqF-S-153">
          <mxGeometry x="40" y="50" width="10" height="10" as="geometry" />
        </mxCell>
        <mxCell id="yrA-a9Iw9x8YZGmcqF-S-20" value="" style="ellipse;whiteSpace=wrap;html=1;aspect=fixed;" vertex="1" parent="yrA-a9Iw9x8YZGmcqF-S-153">
          <mxGeometry x="30" y="10" width="10" height="10" as="geometry" />
        </mxCell>
        <mxCell id="yrA-a9Iw9x8YZGmcqF-S-21" value="" style="ellipse;whiteSpace=wrap;html=1;aspect=fixed;" vertex="1" parent="yrA-a9Iw9x8YZGmcqF-S-153">
          <mxGeometry x="30" y="30" width="10" height="10" as="geometry" />
        </mxCell>
        <mxCell id="yrA-a9Iw9x8YZGmcqF-S-22" value="" style="ellipse;whiteSpace=wrap;html=1;aspect=fixed;" vertex="1" parent="yrA-a9Iw9x8YZGmcqF-S-153">
          <mxGeometry y="50" width="10" height="10" as="geometry" />
        </mxCell>
        <mxCell id="yrA-a9Iw9x8YZGmcqF-S-23" value="" style="ellipse;whiteSpace=wrap;html=1;aspect=fixed;" vertex="1" parent="yrA-a9Iw9x8YZGmcqF-S-153">
          <mxGeometry x="15" y="10" width="10" height="10" as="geometry" />
        </mxCell>
        <mxCell id="yrA-a9Iw9x8YZGmcqF-S-24" value="" style="ellipse;whiteSpace=wrap;html=1;aspect=fixed;" vertex="1" parent="yrA-a9Iw9x8YZGmcqF-S-153">
          <mxGeometry x="15" y="40" width="10" height="10" as="geometry" />
        </mxCell>
        <mxCell id="yrA-a9Iw9x8YZGmcqF-S-25" value="" style="ellipse;whiteSpace=wrap;html=1;aspect=fixed;" vertex="1" parent="yrA-a9Iw9x8YZGmcqF-S-153">
          <mxGeometry y="20" width="10" height="10" as="geometry" />
        </mxCell>
        <mxCell id="yrA-a9Iw9x8YZGmcqF-S-26" value="" style="ellipse;whiteSpace=wrap;html=1;aspect=fixed;" vertex="1" parent="yrA-a9Iw9x8YZGmcqF-S-153">
          <mxGeometry x="75" y="55" width="10" height="10" as="geometry" />
        </mxCell>
        <mxCell id="yrA-a9Iw9x8YZGmcqF-S-27" value="" style="ellipse;whiteSpace=wrap;html=1;aspect=fixed;" vertex="1" parent="yrA-a9Iw9x8YZGmcqF-S-153">
          <mxGeometry x="85" y="20" width="10" height="10" as="geometry" />
        </mxCell>
        <mxCell id="yrA-a9Iw9x8YZGmcqF-S-28" value="" style="ellipse;whiteSpace=wrap;html=1;aspect=fixed;" vertex="1" parent="yrA-a9Iw9x8YZGmcqF-S-153">
          <mxGeometry x="85" y="40" width="10" height="10" as="geometry" />
        </mxCell>
        <mxCell id="yrA-a9Iw9x8YZGmcqF-S-29" value="" style="ellipse;whiteSpace=wrap;html=1;aspect=fixed;" vertex="1" parent="yrA-a9Iw9x8YZGmcqF-S-153">
          <mxGeometry x="70" y="20" width="10" height="10" as="geometry" />
        </mxCell>
        <mxCell id="yrA-a9Iw9x8YZGmcqF-S-30" value="" style="ellipse;whiteSpace=wrap;html=1;aspect=fixed;" vertex="1" parent="yrA-a9Iw9x8YZGmcqF-S-153">
          <mxGeometry x="70" y="70" width="10" height="10" as="geometry" />
        </mxCell>
        <mxCell id="yrA-a9Iw9x8YZGmcqF-S-33" value="" style="ellipse;whiteSpace=wrap;html=1;aspect=fixed;" vertex="1" parent="yrA-a9Iw9x8YZGmcqF-S-153">
          <mxGeometry x="30" y="70" width="10" height="10" as="geometry" />
        </mxCell>
        <mxCell id="yrA-a9Iw9x8YZGmcqF-S-34" value="" style="ellipse;whiteSpace=wrap;html=1;aspect=fixed;" vertex="1" parent="yrA-a9Iw9x8YZGmcqF-S-153">
          <mxGeometry x="45" y="30" width="10" height="10" as="geometry" />
        </mxCell>
        <mxCell id="yrA-a9Iw9x8YZGmcqF-S-37" value="" style="ellipse;whiteSpace=wrap;html=1;aspect=fixed;" vertex="1" parent="yrA-a9Iw9x8YZGmcqF-S-153">
          <mxGeometry x="25" y="50" width="10" height="10" as="geometry" />
        </mxCell>
        <mxCell id="yrA-a9Iw9x8YZGmcqF-S-38" value="" style="ellipse;whiteSpace=wrap;html=1;aspect=fixed;" vertex="1" parent="yrA-a9Iw9x8YZGmcqF-S-153">
          <mxGeometry x="15" y="25" width="10" height="10" as="geometry" />
        </mxCell>
        <mxCell id="yrA-a9Iw9x8YZGmcqF-S-39" value="" style="ellipse;whiteSpace=wrap;html=1;aspect=fixed;" vertex="1" parent="yrA-a9Iw9x8YZGmcqF-S-153">
          <mxGeometry x="55" y="65" width="10" height="10" as="geometry" />
        </mxCell>
      </root>
    </mxGraphModel>
  </diagram>
</mxfile>
